<svg width="138" height="131" viewBox="0 0 138 131" fill="none" xmlns="http://www.w3.org/2000/svg">
<g style="mix-blend-mode:multiply">
<path d="M114.974 68.8314L100.833 32.6321L102.357 14.119H111.868C114.336 14.119 116.547 15.6448 117.423 17.9522L127.967 45.7445L135.822 66.8119C136.869 69.6199 134.793 72.6103 131.796 72.6103H120.507C118.06 72.6103 115.864 71.1103 114.974 68.8314Z" fill="#242E40"/>
</g>
<path d="M98.0285 13.4598H108.129C116.089 13.4598 116.752 16.7563 116.752 16.7563C116.752 16.7563 112.109 12.1412 108.129 24.0088L95.6327 59.1836C94.3037 62.9245 92.2898 66.5553 88.856 68.5477C82.5752 72.192 75.2025 72.2595 66.372 71.0434C61.9016 69.9081 60.0566 66.9515 60.0566 66.9515C69.3426 66.9515 76.8106 47.0653 77.695 43.7686C78.2519 41.6927 82.5481 30.2133 85.6535 21.9962C87.5981 16.8508 92.5279 13.4598 98.0285 13.4598Z" fill="#58C1FC"/>
<g style="mix-blend-mode:multiply">
<path d="M59.945 2.16128C57.4919 1.59213 54.6703 1.59213 53.742 1.59213C45.177 1.59213 38.6925 9.46361 40.4779 17.8405C44.2044 35.3255 48.4836 50.2847 59.526 66.3077C61.3927 69.0164 64.3044 70.8476 67.5686 71.2556C81.7802 73.0319 90.3363 69.7545 92.8652 64.4346C80.8773 71.8113 68.4056 23.3596 64.7398 8.45265C64.0437 5.62205 62.7845 2.82007 59.945 2.16128Z" fill="#242E40"/>
</g>
<path d="M29.7517 95.2218H7.84529C4.09342 95.2218 1.51552 91.4372 2.81121 87.9162C12.0094 62.92 20.2398 31.282 24.8642 11.4168C26.2838 5.31871 31.6861 0.94056 37.9472 0.94056H47.1085C59.0475 0.938896 60.374 1.19911 63.0272 4.22939C61.1697 2.10786 56.9629 2.91516 55.0678 12.8048C45.7985 61.1777 38.2159 83.0623 34.5298 92.0739C33.7398 94.0051 31.8382 95.2218 29.7517 95.2218Z" fill="#58C1FC"/>
<path d="M7.09912 128.925C6.23678 129.767 5.22046 130.188 4.05014 130.188C2.87982 130.188 1.89429 129.787 1.09355 128.986C0.600783 128.494 0.282539 127.862 0.138816 127.092C0.0566887 126.641 0.015625 125.814 0.015625 124.613C0.015625 123.412 0.0566887 122.586 0.138816 122.134C0.282539 121.364 0.600783 120.733 1.09355 120.24C1.89429 119.439 2.87982 119.039 4.05014 119.039C5.22046 119.039 6.23678 119.46 7.09912 120.301L5.68242 121.718C5.16913 121.205 4.62503 120.948 4.05014 120.948C3.41365 120.948 2.92089 121.189 2.57184 121.672C2.29466 122.062 2.15607 123.042 2.15607 124.613C2.15607 125.465 2.16634 125.999 2.18687 126.215C2.25873 126.902 2.42812 127.4 2.69504 127.708C3.03381 128.088 3.48551 128.278 4.05014 128.278C4.62503 128.278 5.16913 128.021 5.68242 127.508L7.09912 128.925Z" fill="#58C1FC"/>
<path d="M19.8421 124.613C19.8421 125.804 19.7959 126.63 19.7035 127.092C19.57 127.852 19.2518 128.483 18.7488 128.986C17.948 129.787 16.9625 130.188 15.7922 130.188C14.6116 130.188 13.6209 129.787 12.8202 128.986C12.3274 128.494 12.0092 127.862 11.8654 127.092C11.7833 126.641 11.7423 125.814 11.7423 124.613C11.7423 123.412 11.7833 122.586 11.8654 122.134C12.0092 121.364 12.3274 120.733 12.8202 120.24C13.6209 119.439 14.6116 119.039 15.7922 119.039C16.9625 119.039 17.948 119.439 18.7488 120.24C19.2518 120.743 19.57 121.374 19.7035 122.134C19.7959 122.596 19.8421 123.422 19.8421 124.613ZM17.7016 124.613C17.7016 123.771 17.6914 123.237 17.6708 123.012C17.6092 122.334 17.4398 121.841 17.1627 121.533C16.8136 121.143 16.3568 120.948 15.7922 120.948C15.2173 120.948 14.7553 121.143 14.4063 121.533C14.1394 121.841 13.9751 122.334 13.9135 123.012C13.893 123.196 13.8827 123.73 13.8827 124.613C13.8827 125.496 13.893 126.03 13.9135 126.215C13.9751 126.892 14.1394 127.385 14.4063 127.693C14.7553 128.083 15.2173 128.278 15.7922 128.278C16.4287 128.278 16.9266 128.032 17.2859 127.539C17.563 127.159 17.7016 126.184 17.7016 124.613Z" fill="#58C1FC"/>
<path d="M35.0339 130.095H32.8935V123.705L30.7992 127.862H29.3517L27.2421 123.705V130.095H25.1017V119.131H27.2113L30.0755 125.06L32.9243 119.131H35.0339V130.095Z" fill="#58C1FC"/>
<path d="M48.5318 122.55C48.5318 123.515 48.2136 124.315 47.5771 124.952C46.8995 125.629 46.0115 125.968 44.9131 125.968H42.8034V130.095H40.663V119.131H44.9131C46.0115 119.131 46.8995 119.47 47.5771 120.147C48.2136 120.784 48.5318 121.585 48.5318 122.55ZM46.3914 122.55C46.3914 122.098 46.2476 121.733 45.9602 121.456C45.6727 121.179 45.2878 121.041 44.8053 121.041H42.8034V124.043H44.8053C45.2878 124.043 45.6727 123.91 45.9602 123.643C46.2476 123.366 46.3914 123.001 46.3914 122.55Z" fill="#58C1FC"/>
<path d="M60.4649 121.041H57.6007V130.095H55.4602V121.041H52.596V119.131H60.4649V121.041Z" fill="#58C1FC"/>
<path d="M73.7586 130.095H71.5257L70.879 128.155H66.9831L66.3209 130.095H64.0881L68.0764 119.131H69.7549L73.7586 130.095ZM70.3092 126.353L68.9695 122.365L67.5836 126.353H70.3092Z" fill="#58C1FC"/>
<path d="M86.1346 126.938C86.1346 127.934 85.8266 128.709 85.2107 129.264C84.5947 129.818 83.7837 130.095 82.7776 130.095H78.1888V119.131H82.5929C83.6503 119.131 84.4767 119.408 85.0721 119.963C85.6778 120.517 85.9806 121.266 85.9806 122.211C85.9806 122.765 85.8266 123.263 85.5187 123.705C85.262 124.054 84.9643 124.31 84.6255 124.475C85.6316 124.947 86.1346 125.768 86.1346 126.938ZM83.8402 122.303C83.8402 121.923 83.717 121.621 83.4706 121.395C83.2242 121.159 82.8752 121.041 82.4235 121.041H80.3292V123.566H82.4235C82.8752 123.566 83.2242 123.453 83.4706 123.227C83.717 122.991 83.8402 122.683 83.8402 122.303ZM83.9942 126.831C83.9942 126.44 83.871 126.122 83.6246 125.876C83.3782 125.619 83.024 125.491 82.5621 125.491H80.3292V128.186H82.5621C83.024 128.186 83.3782 128.057 83.6246 127.801C83.871 127.544 83.9942 127.221 83.9942 126.831Z" fill="#58C1FC"/>
<path d="M93.5446 130.095H91.4042V119.131H93.5446V130.095Z" fill="#58C1FC"/>
<path d="M106.29 130.095H99.1758V119.131H101.316V128.186H106.29V130.095Z" fill="#58C1FC"/>
<path d="M113.253 130.095H111.113V119.131H113.253V130.095Z" fill="#58C1FC"/>
<path d="M125.937 121.041H123.073V130.095H120.933V121.041H118.068V119.131H125.937V121.041Z" fill="#58C1FC"/>
<path d="M137.984 130.095H130.762V119.131H137.984V121.041H132.902V123.612H137.229V125.522H132.902V128.186H137.984V130.095ZM136.49 115.451L134.735 118.069H133.395L134.38 115.451H136.49Z" fill="#58C1FC"/>
</svg>
